<svg xmlns="http://www.w3.org/2000/svg" width="122" height="24" fill="none"><g fill="#000"><path d="M0 0h122v24H0z" fill-opacity="0"/><path d="M0 0h114.078v24H0z" fill-opacity="0"/></g><path d="M18.966 22.832l-4.155-6.584c2.664-1.487 4.049-4.354 4.049-7.327 0-4.354-2.984-8.389-8.524-8.389H.533A.5.5 0 0 0 0 1.062v22.195a.69.69 0 0 0 .639.637h4.475c.32 0 .533-.319.533-.637V17.31H9.59l3.729 6.053c.213.425.533.531 1.066.531h4.049c.639-.106.852-.531.533-1.062zM5.647 5.522h4.582c1.918 0 2.983 1.381 2.983 3.398 0 1.912-1.172 3.398-2.983 3.398H5.647V5.522zm33.137 13.274h-9.909v-4.248h7.139c.32 0 .639-.212.639-.637v-3.823c0-.318-.32-.531-.639-.531h-7.139V5.628h9.483c.32 0 .639-.212.639-.637V1.062c0-.319-.319-.531-.639-.531H23.867a.5.5 0 0 0-.533.531v22.195c0 .318.32.637.533.637h14.917c.32 0 .639-.212.639-.637v-3.823c0-.425-.32-.637-.639-.637zM53.808 24c3.623 0 6.713-1.38 8.95-3.717.32-.318.32-.531 0-.85l-3.41-2.974c-.32-.212-.533-.212-.852 0-1.172 1.168-2.664 2.018-4.688 2.018-3.729 0-6.5-2.761-6.5-6.478s2.77-6.478 6.5-6.478c2.025 0 3.516.85 4.688 2.018.32.212.533.212.852 0l3.41-2.974c.32-.319.32-.531 0-.85C60.414 1.487 57.431 0 53.808 0c-7.032 0-12.253 4.991-12.253 11.894C41.555 19.009 46.776 24 53.808 24zm33.243-1.168l-4.156-6.584c2.664-1.486 4.049-4.354 4.049-7.327 0-4.354-2.983-8.39-8.524-8.39h-9.803a.5.5 0 0 0-.533.531v22.195a.69.69 0 0 0 .639.637H73.2c.32 0 .533-.319.533-.637V17.31h3.942l3.729 6.053c.213.425.533.531 1.066.531h4.049c.639-.106.852-.531.533-1.062zM73.733 5.522h4.582c1.918 0 2.983 1.381 2.983 3.398 0 1.912-1.172 3.398-2.983 3.398h-4.582V5.522zm40.276 17.522L103.886 1.062c-.106-.319-.319-.531-.639-.531h-2.451c-.319 0-.532.212-.639.531L90.035 23.044c-.213.531.107.85.426.85h4.795c.32 0 .533-.319.746-.744l.852-1.805h10.335l.853 1.805c.213.531.426.744.746.744h4.794c.32-.106.64-.319.427-.85zm-15.131-6.372l3.197-7.009 3.196 7.009h-6.393z" fill="#232734"/><g fill="#000"><path d="M114.115.319H122v7.858h-7.885z" fill-opacity="0"/><path d="M114.115.319H122v7.858h-7.885z" fill-opacity="0"/></g><g opacity=".75"><path d="M114.115.319H122v7.858h-7.885z" fill="#000" fill-opacity="0"/><path d="M121.68.319c.213 0 .32.212.32.319v7.221c0 .212-.213.319-.32.319h-.959c-.106 0-.319-.106-.319-.212l-2.345-4.673-.319.637-2.025 4.035c-.106.106-.213.212-.319.212h-.959c-.213 0-.32-.212-.32-.319V.637c0-.212.213-.319.32-.319h7.245z" opacity=".75" fill="#C61F1D"/></g><path d="M116.566.319H122v7.858h-5.434z" fill="#000" fill-opacity="0"/><path d="M116.566.319h5.114c.214 0 .32.212.32.319v7.221c0 .212-.213.319-.32.319h-.959c-.106 0-.319-.106-.319-.212L116.566.319z" fill="#C61F1D"/></svg>